# xmcd CD database file
#
# Track frame offsets:
#	150
#	20182
#	37903
#	55098
#	71438
#	89560
#	98632
#	113566
#	128513
#	151689
#	175857
#	192418
#
# Disc length: 2781 seconds
#
# Revision: 0
# Processed by: cddbd v1.5.2PL0 Copyright (c) Steve Scherf et al.
# Submitted via: CDex 1.70beta2
#
DISCID=900adb0c
DTITLE=Tone Tanner - Plucked Airs
DYEAR=2015
DGENRE=Blues
TTITLE0=Release
TTITLE1=Maybe later
TTITLE2=Physically free
TTITLE3=Friend
TTITLE4=Leave that place
TTITLE5=Jugular
TTITLE6=Everything
TTITLE7=Plague return
TTITLE8=In your eyes
TTITLE9=Unfinished Symphony
TTITLE10=Spellbound
TTITLE11=Get lucky
EXTD=YEAR: 2015
EXTT0=
EXTT1=
EXTT2=
EXTT3=
EXTT4=
EXTT5=
EXTT6=
EXTT7=
EXTT8=
EXTT9=
EXTT10=
EXTT11=
PLAYORDER=
